# xmcd CD database file
#
# Track frame offsets:
#	150
#	19707
#	30575
#	55450
#	75647
#	142625
#	153925
#	178450
#
# Disc length: 3039 seconds
#
# Revision: 0
# Processed by: cddbd v1.5.1PL2 Copyright (c) Steve Scherf et al.
# Submitted via: CDex 1.51
#
DISCID=5c0bdd08
DTITLE=Silent Dream Orchestra - Friendship
DYEAR=1998
DGENRE=New Age
TTITLE0=Sunrise
TTITLE1=Magic moments
TTITLE2=Wishing to stay
TTITLE3=Latin feelings
TTITLE4=Summernight
TTITLE5=Wispering wind
TTITLE6=Friendship
TTITLE7=Colorful times
EXTD=YEAR: 1998
EXTT0=
EXTT1=
EXTT2=
EXTT3=
EXTT4=
EXTT5=
EXTT6=
EXTT7=
PLAYORDER=
